<svg viewBox="1 -65 511.99985 511" xmlns="http://www.w3.org/2000/svg"><path d="m289.476562 1.898438c-3.039062-1.8007818-6.800781-1.867188-9.898437-.171876l-176.113281 96.339844h-77.085938c-14.546875 0-26.378906 11.835938-26.378906 26.378906v134.101563c0 14.546875 11.832031 26.378906 26.378906 26.378906h77.085938l176.113281 96.339844c1.496094.816406 3.148437 1.226563 4.800781 1.226563 1.761719 0 3.527344-.46875 5.097656-1.398438 3.039063-1.800781 4.902344-5.070312 4.902344-8.605469v-238.671875c0-5.523437-4.476562-10-10-10-5.527344 0-10.003906 4.476563-10.003906 10v221.800782l-163.554688-89.46875c-1.472656-.804688-3.121093-1.226563-4.800781-1.226563h-79.640625c-3.515625 0-6.375-2.859375-6.375-6.375v-134.101563c0-3.515624 2.859375-6.375 6.375-6.375h69.640625v79.925782c0 5.527344 4.476563 10.003906 10 10.003906 5.523438 0 10.003907-4.476562 10.003907-10.003906v-83.996094l158.351562-86.625v29.761719c0 5.523437 4.480469 10 10.003906 10 5.523438 0 10-4.476563 10-10v-46.632813c0-3.535156-1.863281-6.804687-4.902344-8.605468zm0 0"/><path d="m284.375 84.945312c-2.628906 0-5.199219 1.070313-7.070312 2.929688-1.863282 1.863281-2.929688 4.441406-2.929688 7.074219 0 2.628906 1.066406 5.210937 2.929688 7.070312 1.871093 1.859375 4.441406 2.929688 7.070312 2.929688s5.210938-1.070313 7.070312-2.929688c1.871094-1.859375 2.929688-4.441406 2.929688-7.070312 0-2.632813-1.058594-5.210938-2.929688-7.074219-1.859374-1.859375-4.441406-2.929688-7.070312-2.929688zm0 0"/><path d="m106.019531 227.003906c-2.628906 0-5.210937 1.070313-7.070312 2.929688s-2.929688 4.441406-2.929688 7.070312c0 2.632813 1.070313 5.210938 2.929688 7.074219 1.859375 1.859375 4.441406 2.929687 7.070312 2.929687 2.632813 0 5.210938-1.070312 7.074219-2.929687 1.859375-1.863281 2.929688-4.441406 2.929688-7.074219 0-2.628906-1.070313-5.210937-2.929688-7.070312-1.863281-1.859375-4.441406-2.929688-7.074219-2.929688zm0 0"/><path d="m450.488281 42.753906c-3.90625-3.90625-10.238281-3.90625-14.144531 0s-3.90625 10.238282 0 14.144532c74.214844 74.21875 74.214844 194.976562 0 269.195312-3.90625 3.90625-3.90625 10.238281 0 14.144531 1.953125 1.953125 4.511719 2.929688 7.070312 2.929688 2.558594 0 5.121094-.976563 7.074219-2.929688 82.015625-82.015625 82.015625-215.46875 0-297.484375zm0 0"/><path d="m400.695312 92.546875c-3.90625-3.90625-10.238281-3.90625-14.148437 0-3.90625 3.90625-3.902344 10.238281 0 14.148437 46.761719 46.757813 46.761719 122.84375 0 169.601563-3.902344 3.90625-3.902344 10.242187 0 14.148437 1.957031 1.953126 4.515625 2.929688 7.074219 2.929688s5.121094-.976562 7.074218-2.929688c54.558594-54.5625 54.558594-143.335937 0-197.898437zm0 0"/><path d="m334.050781 145.046875c-3.90625 3.90625-3.90625 10.238281 0 14.144531 17.8125 17.8125 17.8125 46.796875 0 64.609375-3.90625 3.90625-3.90625 10.238281 0 14.144531 1.953125 1.953126 4.511719 2.929688 7.070313 2.929688s5.121094-.976562 7.074218-2.929688c25.609376-25.609374 25.609376-67.285156 0-92.898437-3.90625-3.90625-10.238281-3.90625-14.144531 0zm0 0"/></svg>